<?xml version="1.0" encoding="UTF-8"?>
<!DOCTYPE svg PUBLIC "-//W3C//DTD SVG 1.1//EN" "http://www.w3.org/Graphics/SVG/1.1/DTD/svg11.dtd">
<!-- Creator: CorelDRAW X8 -->
<svg xmlns="http://www.w3.org/2000/svg" xml:space="preserve" width="70.498mm" height="22.5078mm" version="1.1" style="shape-rendering:geometricPrecision; text-rendering:geometricPrecision; image-rendering:optimizeQuality; fill-rule:evenodd; clip-rule:evenodd"
viewBox="0 0 7050 2251"
 xmlns:xlink="http://www.w3.org/1999/xlink">
 <defs>
  <style type="text/css">
   <![CDATA[
    .fil0 {fill:#F6EFF1}
    .fil3 {fill:#FBE27B}
    .fil2 {fill:#FFFAE2}
    .fil1 {fill:#FEFEFE;fill-rule:nonzero}
   ]]>
  </style>
 </defs>
 <g id="Camada_x0020_1">
  <metadata id="CorelCorpID_0Corel-Layer"/>
  <rect class="fil0" x="326" y="1626" width="408.448" height="93.3589" rx="40" ry="40"/>
  <rect class="fil0" x="327" y="1738" width="404.559" height="93.3589" rx="39" ry="40"/>
  <rect class="fil0" x="399" y="1853" width="260.759" height="93.3589" rx="25" ry="40"/>
  <polygon class="fil1" points="780,858 823,858 823,392 780,392 "/>
  <path id="1" class="fil1" d="M1141 863c-3,0 -5,-1 -8,-1 -30,-1 -57,-9 -82,-23 -29,-17 -48,-38 -58,-66l40 -14c7,18 21,33 42,44 18,10 38,16 60,17 33,1 60,-7 82,-25 20,-16 31,-35 32,-56 1,-40 -36,-71 -111,-93 -55,-15 -94,-36 -117,-64 -18,-20 -27,-44 -26,-70 2,-44 21,-77 57,-99 28,-17 62,-25 102,-23 48,3 87,19 115,50l-31 29c-21,-22 -50,-35 -86,-36 -32,-2 -58,4 -78,16 -23,14 -35,36 -36,65 -2,40 35,70 111,91 55,16 94,37 117,65 18,21 26,44 25,71 -1,34 -17,63 -47,87 -28,23 -63,35 -103,35z"/>
  <polygon id="2" class="fil1" points="1312,858 1355,858 1355,392 1312,392 "/>
  <polygon id="3" class="fil1" points="1797,395 1620,804 1443,395 1399,395 1399,858 1441,858 1441,498 1597,858 1643,858 1799,498 1799,858 1842,858 1842,395 "/>
  <path id="4" class="fil1" d="M1940 606l124 0c23,0 43,-8 60,-25 16,-16 25,-36 25,-59 0,-23 -9,-43 -25,-60 -17,-16 -37,-25 -60,-25l-124 0 0 169zm0 252l-43 0 0 -463 167 0c35,0 65,12 90,37 25,25 37,55 37,90 0,35 -12,65 -37,90 -25,25 -55,37 -90,37l-124 0 0 209z"/>
  <path id="5" class="fil1" d="M2444 433c-53,0 -99,19 -137,57 -38,38 -57,83 -57,137 0,53 19,99 57,137 38,37 84,56 137,56 53,0 99,-19 137,-56 38,-38 57,-84 57,-137 0,-54 -19,-99 -57,-137 -38,-38 -84,-57 -137,-57zm0 430c-65,0 -121,-23 -167,-70 -46,-46 -69,-101 -69,-166 0,-66 23,-121 69,-168 46,-46 102,-69 167,-69 65,0 121,23 167,69 46,47 69,102 69,168 0,65 -23,120 -69,166 -46,47 -102,70 -167,70zm-26 -560l0 73 18 0 34 -73 -52 0z"/>
  <path id="6" class="fil1" d="M2844 863c-3,0 -6,-1 -9,-1 -30,-1 -57,-9 -82,-23 -28,-17 -48,-38 -58,-66l40 -14c7,18 21,33 42,44 19,10 39,16 60,17 33,1 61,-7 83,-25 20,-16 30,-35 31,-56 2,-40 -35,-71 -111,-93 -55,-15 -94,-36 -117,-64 -18,-20 -26,-44 -25,-70 2,-44 20,-77 56,-99 28,-17 62,-25 102,-23 48,3 87,19 116,50l-32 29c-20,-22 -49,-35 -86,-36 -31,-2 -57,4 -78,16 -22,14 -34,36 -36,65 -1,40 36,70 111,91 55,16 94,37 117,65 18,21 27,44 26,71 -2,34 -18,63 -47,87 -29,23 -63,35 -103,35z"/>
  <polygon id="7" class="fil1" points="3014,858 3057,858 3057,392 3014,392 "/>
  <path id="8" class="fil1" d="M3316 433c-54,0 -99,19 -137,57 -38,38 -57,83 -57,137 0,53 19,99 57,137 38,37 83,56 137,56 53,0 99,-19 137,-56 38,-38 56,-84 56,-137 0,-54 -18,-99 -56,-137 -38,-38 -84,-57 -137,-57zm0 430c-65,0 -121,-23 -167,-70 -46,-46 -69,-101 -69,-166 0,-66 23,-121 69,-168 46,-46 102,-69 167,-69 65,0 121,23 167,69 46,47 69,102 69,168 0,65 -23,120 -69,166 -46,47 -102,70 -167,70z"/>
  <path id="9" class="fil1" d="M3779 816l72 0c52,0 97,-19 134,-56 37,-37 55,-81 55,-134 0,-52 -18,-97 -55,-134 -37,-37 -82,-55 -134,-55l-72 0 0 379zm-42 42l0 -463 114 0c64,0 118,22 164,68 45,45 68,99 68,163 0,64 -23,119 -68,164 -46,45 -100,68 -164,68l-114 0z"/>
  <polygon id="10" class="fil1" points="4121,395 4121,858 4358,858 4358,815 4164,815 4164,647 4317,647 4317,604 4164,604 4164,437 4358,437 4358,395 "/>
  <path id="11" class="fil1" d="M4810 395l-293 463 50 0 73 -116 184 0 0 116 42 0 0 -463 -56 0zm14 56l0 249 -157 0 157 -249z"/>
  <polygon id="12" class="fil1" points="5200,395 5200,781 4970,395 4924,395 4924,858 4966,858 4966,472 5197,858 5243,858 5243,395 "/>
  <path id="13" class="fil1" d="M5566 395l-293 463 50 0 74 -116 184 0 0 116 42 0 0 -463 -57 0zm15 56l0 249 -158 0 158 -249zm-14 -148l0 73 18 0 34 -73 -52 0z"/>
  <polygon id="14" class="fil1" points="5680,395 5680,858 5938,858 5938,815 5723,815 5723,395 "/>
  <polygon id="15" class="fil1" points="5960,858 6003,858 6003,392 5960,392 "/>
  <path id="16" class="fil1" d="M6173 863c-3,0 -5,-1 -8,-1 -30,-1 -58,-9 -83,-23 -28,-17 -47,-38 -57,-66l40 -14c7,18 20,33 42,44 18,10 38,16 60,17 33,1 60,-7 82,-25 20,-16 30,-35 32,-56 1,-40 -36,-71 -111,-93 -55,-15 -94,-36 -118,-64 -18,-20 -26,-44 -25,-70 2,-44 21,-77 56,-99 29,-17 63,-25 103,-23 48,3 86,19 115,50l-31 29c-21,-22 -50,-35 -86,-36 -32,-2 -58,4 -78,16 -23,14 -35,36 -36,65 -2,40 35,70 111,91 55,16 94,37 117,65 18,21 26,44 25,71 -2,34 -17,63 -47,87 -28,23 -63,35 -103,35z"/>
  <polygon id="17" class="fil1" points="6360,395 6360,858 6597,858 6597,815 6403,815 6403,647 6556,647 6556,604 6403,604 6403,437 6597,437 6597,395 "/>
  <polygon id="18" class="fil1" points="6782,395 6782,858 7019,858 7019,815 6825,815 6825,647 6978,647 6978,604 6825,604 6825,437 7019,437 7019,395 "/>
  <path class="fil1" d="M806 1313l53 0c38,0 71,-14 98,-41 28,-28 41,-61 41,-99 0,-39 -13,-72 -41,-99 -27,-28 -60,-41 -98,-41l-53 0 0 280zm-32 31l0 -343 85 0c47,0 87,17 121,51 33,33 50,73 50,121 0,47 -17,87 -50,121 -34,33 -74,50 -121,50l-85 0z"/>
  <polygon id="1" class="fil1" points="1058,1001 1058,1344 1233,1344 1233,1312 1090,1312 1090,1188 1203,1188 1203,1156 1090,1156 1090,1033 1233,1033 1233,1001 "/>
  <path id="2" class="fil1" d="M1354 1347c-2,0 -4,0 -7,0 -22,-1 -42,-7 -60,-18 -21,-12 -36,-28 -43,-48l30 -11c5,14 15,25 31,34 13,7 28,11 44,12 24,1 44,-5 61,-19 14,-11 22,-25 23,-41 1,-30 -26,-53 -82,-69 -40,-11 -69,-27 -87,-47 -13,-15 -19,-32 -18,-52 1,-32 15,-57 41,-73 21,-12 46,-18 76,-17 36,2 64,14 85,37l-23 22c-15,-17 -36,-26 -64,-27 -23,-1 -42,3 -57,12 -17,10 -26,26 -27,48 -1,29 26,51 82,67 41,11 70,27 87,48 13,15 19,33 19,52 -2,26 -13,47 -35,65 -21,17 -47,25 -76,25z"/>
  <polygon id="3" class="fil1" points="1492,1001 1492,1344 1666,1344 1666,1312 1523,1312 1523,1188 1636,1188 1636,1156 1523,1156 1523,1033 1666,1033 1666,1001 "/>
  <polygon id="4" class="fil1" points="1899,1001 1899,1287 1728,1001 1694,1001 1694,1344 1725,1344 1725,1058 1896,1344 1930,1344 1930,1001 "/>
  <polygon id="5" class="fil1" points="2193,1001 2003,1302 2003,1001 1972,1001 1972,1344 2014,1344 2230,1001 "/>
  <path id="6" class="fil1" d="M2371 1030c-39,0 -73,14 -101,42 -28,28 -42,61 -42,101 0,39 14,73 42,101 28,28 62,42 101,42 40,0 73,-14 101,-42 28,-28 42,-62 42,-101 0,-40 -14,-73 -42,-101 -28,-28 -61,-42 -101,-42zm0 317c-48,0 -89,-17 -123,-51 -34,-34 -51,-75 -51,-123 0,-48 17,-89 51,-124 34,-34 75,-51 123,-51 48,0 90,17 124,51 34,35 51,76 51,124 0,48 -17,89 -51,123 -34,34 -76,51 -124,51z"/>
  <polygon id="7" class="fil1" points="2574,1001 2574,1344 2764,1344 2764,1312 2605,1312 2605,1001 "/>
  <polygon id="8" class="fil1" points="3013,1001 2824,1302 2824,1001 2792,1001 2792,1344 2834,1344 3051,1001 "/>
  <polygon id="9" class="fil1" points="3060,1344 3092,1344 3092,1000 3060,1000 "/>
  <polygon id="10" class="fil1" points="3419,1001 3288,1304 3158,1001 3125,1001 3125,1344 3156,1344 3156,1078 3271,1344 3305,1344 3420,1078 3420,1344 3452,1344 3452,1001 "/>
  <polygon id="11" class="fil1" points="3492,1001 3492,1344 3667,1344 3667,1312 3524,1312 3524,1188 3637,1188 3637,1156 3524,1156 3524,1033 3667,1033 3667,1001 "/>
  <polygon id="12" class="fil1" points="3899,1001 3899,1287 3729,1001 3695,1001 3695,1344 3726,1344 3726,1058 3897,1344 3931,1344 3931,1001 "/>
  <polygon id="13" class="fil1" points="3956,1001 3956,1033 4046,1033 4046,1344 4078,1344 4078,1033 4167,1033 4167,1001 "/>
  <path id="14" class="fil1" d="M4325 1030c-39,0 -73,14 -101,42 -28,28 -42,61 -42,101 0,39 14,73 42,101 28,28 62,42 101,42 40,0 73,-14 101,-42 28,-28 42,-62 42,-101 0,-40 -14,-73 -42,-101 -28,-28 -61,-42 -101,-42zm0 317c-48,0 -89,-17 -123,-51 -34,-34 -51,-75 -51,-123 0,-48 17,-89 51,-124 34,-34 75,-51 123,-51 49,0 90,17 124,51 34,35 51,76 51,124 0,48 -17,89 -51,123 -34,34 -75,51 -124,51z"/>
  <path id="15" class="fil1" d="M4668 1313l53 0c38,0 71,-14 99,-41 27,-28 41,-61 41,-99 0,-39 -14,-72 -41,-99 -28,-28 -61,-41 -99,-41l-53 0 0 280zm-31 31l0 -343 84 0c47,0 87,17 121,51 33,33 50,73 50,121 0,47 -17,87 -50,121 -34,33 -74,50 -121,50l-84 0z"/>
  <polygon id="16" class="fil1" points="4920,1001 4920,1344 5095,1344 5095,1312 4952,1312 4952,1188 5065,1188 5065,1156 4952,1156 4952,1033 5095,1033 5095,1001 "/>
  <path id="17" class="fil1" d="M5325 1347c-2,0 -4,0 -6,0 -22,-1 -42,-7 -61,-18 -21,-12 -35,-28 -42,-48l29 -11c5,14 16,25 31,34 14,7 29,11 45,12 24,1 44,-5 61,-19 14,-11 22,-25 23,-41 1,-30 -26,-53 -82,-69 -41,-11 -69,-27 -87,-47 -13,-15 -19,-32 -18,-52 1,-32 15,-57 41,-73 21,-12 46,-18 76,-17 35,2 64,14 85,37l-23 22c-15,-17 -37,-26 -64,-27 -23,-1 -42,3 -57,12 -17,10 -26,26 -27,48 -1,29 26,51 82,67 41,11 69,27 87,48 13,15 19,33 18,52 -1,26 -13,47 -35,65 -21,17 -46,25 -76,25z"/>
  <polygon id="18" class="fil1" points="5452,1344 5483,1344 5483,1000 5452,1000 "/>
  <path id="19" class="fil1" d="M5609 1347c-2,0 -4,0 -7,0 -22,-1 -42,-7 -60,-18 -21,-12 -36,-28 -43,-48l30 -11c5,14 15,25 31,34 13,7 28,11 44,12 24,1 45,-5 61,-19 15,-11 22,-25 23,-41 1,-30 -26,-53 -82,-69 -40,-11 -69,-27 -86,-47 -14,-15 -20,-32 -19,-52 1,-32 15,-57 41,-73 21,-12 46,-18 76,-17 36,2 64,14 85,37l-23 22c-15,-17 -36,-26 -63,-27 -24,-1 -43,3 -58,12 -17,10 -26,26 -27,48 -1,29 26,51 82,67 41,11 70,27 87,48 13,15 19,33 19,52 -2,26 -13,47 -35,65 -21,17 -47,25 -76,25z"/>
  <polygon id="20" class="fil1" points="5730,1001 5730,1033 5820,1033 5820,1344 5851,1344 5851,1033 5941,1033 5941,1001 "/>
  <polygon id="21" class="fil1" points="5969,1001 5969,1344 6144,1344 6144,1312 6001,1312 6001,1188 6114,1188 6114,1156 6001,1156 6001,1033 6144,1033 6144,1001 "/>
  <polygon id="22" class="fil1" points="6466,1001 6335,1304 6204,1001 6171,1001 6171,1344 6203,1344 6203,1078 6318,1344 6352,1344 6467,1078 6467,1344 6499,1344 6499,1001 "/>
  <path id="23" class="fil1" d="M6736 1001l-217 343 37 0 54 -86 136 0 0 86 31 0 0 -343 -41 0zm10 42l0 184 -116 0 116 -184z"/>
  <path id="24" class="fil1" d="M6913 1347c-2,0 -4,0 -7,0 -22,-1 -42,-7 -60,-18 -21,-12 -36,-28 -43,-48l30 -11c5,14 15,25 31,34 13,7 28,11 44,12 24,1 45,-5 61,-19 15,-11 22,-25 23,-41 1,-30 -26,-53 -82,-69 -40,-11 -69,-27 -86,-47 -14,-15 -20,-32 -19,-52 1,-32 15,-57 41,-73 21,-12 46,-18 76,-17 36,2 64,14 85,37l-23 22c-15,-17 -36,-26 -63,-27 -24,-1 -43,3 -58,12 -17,10 -26,26 -27,48 -1,29 26,51 82,67 41,11 70,27 87,48 13,15 19,33 19,52 -2,26 -13,47 -35,65 -21,17 -47,25 -76,25z"/>
  <path class="fil2" d="M579 1576c0,0 -189,-2 -251,-12 0,0 -19,-16 -25,-39 -5,-23 -42,-261 -42,-261 0,0 -8,-102 -64,-170 0,0 -147,-175 -163,-325l255 0 -1 -65c-107,-47 -82,-208 38,-212 130,-4 146,180 46,208l0 68 210 0 0 255 -17 0c-88,-129 -270,-38 -263,84 7,124 162,189 267,71l16 -1 -6 399z"/>
  <path class="fil3" d="M253 735l-225 0c0,0 -82,-568 552,-610l1 609 -176 0 0 -11c108,-54 87,-266 -76,-266 -149,0 -192,206 -76,265l0 13z"/>
 </g>
</svg>
